nColumns=19
nRows=61
DataType=double
version=3
OpenSimVersion=4.1
endheader
time	ground_force_calcn_r_vx	ground_force_calcn_r_vy	ground_force_calcn_r_vz	ground_force_calcn_r_px	ground_force_calcn_r_py	ground_force_calcn_r_pz	ground_force_calcn_r_mx	ground_force_calcn_r_my	ground_force_calcn_r_mz	ground_force_calcn_l_vx	ground_force_calcn_l_vy	ground_force_calcn_l_vz	ground_force_calcn_l_px	ground_force_calcn_l_py	ground_force_calcn_l_pz	ground_force_calcn_l_mx	ground_force_calcn_l_my	ground_force_calcn_l_mz
0.39	-13.6105	27.4113	-8.23162	0.960727	0	-0.228496	-0.11995	0.241577	-0.0725456	0	0	0	0	0	0	0	0	0
0.4	-51.0629	110.928	-18.7011	0.973854	0	-0.253002	-0.67481	1.46594	-0.24714	0	0	0	0	0	0	0	0	0
0.41	-132.569	334.6	-33.3205	0.982521	0	-0.256033	-1.10156	2.7803	-0.276872	0	0	0	0	0	0	0	0	0
0.42	-227.078	717.333	-45.7721	0.974443	0	-0.259824	-1.14149	3.60595	-0.230091	0	0	0	0	0	0	0	0	0
0.43	-270.094	1161.13	-45.5799	0.944239	0	-0.26607	-0.801004	3.44351	-0.135174	0	0	0	0	0	0	0	0	0
0.44	-281.201	1553.61	-26.6998	0.905005	0	-0.27222	-0.413225	2.28303	-0.0392354	0	0	0	0	0	0	0	0	0
0.45	-303.333	1831.24	1.30519	0.869112	0	-0.276317	-0.144822	0.874304	0.000623144	0	0	0	0	0	0	0	0	0
0.46	-301.622	2015.41	17.6409	0.833677	0	-0.279078	-0.0326718	0.21831	0.00191088	0	0	0	0	0	0	0	0	0
0.47	-244.317	2157.53	13.0555	0.795044	0	-0.28071	-0.106886	0.943898	0.00571162	0	0	0	0	0	0	0	0	0
0.48	-157.02	2258.42	-1.79881	0.756433	0	-0.280272	-0.209477	3.01291	-0.00239975	0	0	0	0	0	0	0	0	0
0.49	-73.8882	2285.08	-15.2402	0.719592	0	-0.278466	-0.186317	5.76205	-0.0384297	0	0	0	0	0	0	0	0	0
0.5	6.38898	2219.47	-25.3421	0.681982	0	-0.276883	0.023823	8.27591	-0.0944949	0	0	0	0	0	0	0	0	0
0.51	92.8088	2063.86	-29.9602	0.641452	0	-0.275913	0.439783	9.77979	-0.141969	0	0	0	0	0	0	0	0	0
0.52	185.514	1827.21	-24.8857	0.597418	0	-0.274818	1.00497	9.89842	-0.134811	0	0	0	0	0	0	0	0	0
0.53	267.15	1525.29	-13.9277	0.552373	0	-0.273257	1.53234	8.74886	-0.0798875	0	0	0	0	0	0	0	0	0
0.54	300.23	1181.19	-6.18995	0.509776	0	-0.271776	1.74296	6.85728	-0.0359352	0	0	0	0	0	0	0	0	0
0.55	275.937	823.541	-4.15777	0.466792	0	-0.270542	1.60807	4.79933	-0.0242301	0	0	0	0	0	0	0	0	0
0.56	212.527	500.712	-3.58818	0.421062	0	-0.268301	1.25056	2.94631	-0.0211137	0	0	0	0	0	0	0	0	0
0.57	129.866	260.994	-1.46902	0.392917	0	-0.263104	0.76197	1.53135	-0.00861924	0	0	0	0	0	0	0	0	0
0.58	56.0159	113.793	1.377	0.423364	0	-0.252482	0.292278	0.593744	0.00718484	0	0	0	0	0	0	0	0	0
0.59	14.4147	39.3113	2.85097	0.548186	0	-0.228998	-0.00330546	-0.00901454	-0.000653761	0	0	0	0	0	0	0	0	0
0.6	1.21759	12.1194	2.42316	0.87539	0	-0.180183	-0.0368639	-0.366929	-0.0733642	0	0	0	0	0	0	0	0	0
0.61	0	0	0	0	0	0	0	0	0	0	0	0	0	0	0	0	0	0
0.62	0	0	0	0	0	0	0	0	0	0	0	0	0	0	0	0	0	0
0.63	0	0	0	0	0	0	0	0	0	0	0	0	0	0	0	0	0	0
0.64	0	0	0	0	0	0	0	0	0	0	0	0	0	0	0	0	0	0
0.65	0	0	0	0	0	0	0	0	0	0	0	0	0	0	0	0	0	0
0.66	0	0	0	0	0	0	0	0	0	0	0	0	0	0	0	0	0	0
0.67	0	0	0	0	0	0	0	0	0	0	0	0	0	0	0	0	0	0
0.68	0	0	0	0	0	0	0	0	0	0	0	0	0	0	0	0	0	0
0.69	0	0	0	0	0	0	0	0	0	0	0	0	0	0	0	0	0	0
0.7	0	0	0	0	0	0	0	0	0	0	0	0	0	0	0	0	0	0
0.71	0	0	0	0	0	0	0	0	0	-13.3972	25.6065	-3.16092	1.04484	0	-0.521506	-2.51118	4.79971	-0.592486
0.72	0	0	0	0	0	0	0	0	0	-47.6923	104.245	0.700627	0.932252	0	-0.469155	-1.88831	4.12744	0.0277403
0.73	0	0	0	0	0	0	0	0	0	-125.642	319.604	18.83	0.928281	0	-0.446333	-0.764535	1.94479	0.114581
0.74	0	0	0	0	0	0	0	0	0	-211.035	685.259	55.4722	0.92434	0	-0.430415	0.365111	-1.18557	-0.0959726
0.75	0	0	0	0	0	0	0	0	0	-237.227	1104.59	92.9707	0.900161	0	-0.417893	0.919255	-4.28027	-0.360261
0.76	0	0	0	0	0	0	0	0	0	-225.911	1481.28	101.656	0.861115	0	-0.410898	0.951477	-6.23876	-0.428145
0.77	0	0	0	0	0	0	0	0	0	-224.16	1757.09	79.8892	0.820942	0	-0.409148	0.869728	-6.81741	-0.309966
0.78	0	0	0	0	0	0	0	0	0	-223.291	1945.61	60.4935	0.783794	0	-0.408435	0.774665	-6.74992	-0.209871
0.79	0	0	0	0	0	0	0	0	0	-195.042	2090.18	66.3591	0.746776	0	-0.40692	0.646672	-6.9301	-0.220017
0.8	0	0	0	0	0	0	0	0	0	-122.674	2185.34	85.0223	0.707138	0	-0.40659	0.430682	-7.67224	-0.298495
0.81	0	0	0	0	0	0	0	0	0	-20.1065	2202.38	95.4255	0.664623	0	-0.408436	0.078331	-8.58004	-0.371759
0.82	0	0	0	0	0	0	0	0	0	91.4371	2133.33	95.2763	0.620284	0	-0.410194	-0.381536	-8.90169	-0.397556
0.83	0	0	0	0	0	0	0	0	0	197.102	1978.27	90.432	0.575715	0	-0.41001	-0.793794	-7.96715	-0.364199
0.84	0	0	0	0	0	0	0	0	0	283.415	1738.75	78.1526	0.531992	0	-0.408481	-0.902253	-5.53531	-0.248799
0.85	0	0	0	0	0	0	0	0	0	331.081	1424.42	54.871	0.489423	0	-0.407393	-0.464099	-1.99671	-0.0769165
0.86	0	0	0	0	0	0	0	0	0	328.16	1064.54	27.5714	0.447697	0	-0.4071	0.531349	1.72369	0.0446431
0.87	0	0	0	0	0	0	0	0	0	278.897	710.861	6.51844	0.406532	0	-0.40573	1.79624	4.57833	0.0419822
0.88	0	0	0	0	0	0	0	0	0	199.293	417.544	-5.86037	0.370461	0	-0.401523	2.83454	5.93872	-0.083352
0.89	0	0	0	0	0	0	0	0	0	114.944	211.681	-12.237	0.351918	0	-0.39521	3.1935	5.88115	-0.33998
0.9	0	0	0	0	0	0	0	0	0	53.2435	89.8468	-13.3257	0.355753	0	-0.384511	2.82377	4.76503	-0.70673
0.91	0	0	0	0	0	0	0	0	0	19.5299	33.5086	-9.30499	0.426647	0	-0.343173	1.88989	3.2426	-0.900438
0.92	0	0	0	0	0	0	0	0	0	4.02703	14.5607	-3.59315	0.739734	0	-0.249721	0.596853	2.15807	-0.532547
0.93	0	0	0	0	0	0	0	0	0	0	0	0	0	0	0	0	0	0
0.94	0	0	0	0	0	0	0	0	0	0	0	0	0	0	0	0	0	0
0.95	0	0	0	0	0	0	0	0	0	0	0	0	0	0	0	0	0	0
0.96	0	0	0	0	0	0	0	0	0	0	0	0	0	0	0	0	0	0
0.97	0	0	0	0	0	0	0	0	0	0	0	0	0	0	0	0	0	0
0.98	0	0	0	0	0	0	0	0	0	0	0	0	0	0	0	0	0	0
0.99	0	0	0	0	0	0	0	0	0	0	0	0	0	0	0	0	0	0
